<svg width="52" height="42" viewBox="0 0 52 42" fill="none" xmlns="http://www.w3.org/2000/svg">
<path d="M47.9704 0H3.69003C2.71137 0 1.7728 0.438548 1.08078 1.21917C0.38877 1.99979 0 3.05854 0 4.1625V37.4625C0 38.5665 0.38877 39.6252 1.08078 40.4058C1.7728 41.1865 2.71137 41.625 3.69003 41.625H47.9704C48.949 41.625 49.8876 41.1865 50.5796 40.4058C51.2716 39.6252 51.6604 38.5665 51.6604 37.4625V4.1625C51.6604 3.05854 51.2716 1.99979 50.5796 1.21917C49.8876 0.438548 48.949 0 47.9704 0V0ZM43.9113 4.1625L25.8302 18.2734L7.74906 4.1625H43.9113ZM3.69003 37.4625V6.05644L24.7785 22.5191C25.0874 22.7608 25.4543 22.8903 25.8302 22.8903C26.2061 22.8903 26.573 22.7608 26.8819 22.5191L47.9704 6.05644V37.4625H3.69003Z" fill="white"/>
</svg>
