<svg width="56" height="42" viewBox="0 0 56 42" fill="none" xmlns="http://www.w3.org/2000/svg">
<path d="M9.76401 3.49151C10.7622 2.33707 11.3057 1.63573 11.3057 1.11759C11.3057 0.818408 11.1207 0.520312 10.9366 0.313271C10.7014 0.120278 10.4193 0.0128558 10.1282 0.00542025C9.31114 0.00542025 8.1125 0.958242 6.6749 2.79018C2.67813 7.91309 0.638313 12.8788 0.721177 20.199C0.804042 27.5191 2.40448 32.8816 5.93008 37.7454C7.74057 40.309 9.12807 41.625 10.1186 41.625C10.4224 41.5964 10.7077 41.4492 10.9251 41.2088C11.1091 40.9096 11.2922 40.5985 11.2922 40.3004C11.2922 39.6901 10.9203 38.9779 10.0203 38.0728C5.73737 33.4843 3.53375 27.5581 3.51834 20.187C3.50388 13.5281 5.59958 8.00306 9.76401 3.49151V3.49151ZM23.4704 38.5974C23.5263 38.6375 23.5581 38.6571 23.5581 38.6571L23.4704 38.5974ZM32.5074 38.6571L32.5238 38.643C32.5055 38.657 32.4988 38.6625 32.5074 38.6571ZM32.809 21.5106C31.2442 21.0607 37.6662 12.5254 26.2521 2.30563C26.2521 2.30563 27.7495 7.65835 20.1982 19.6028C13.042 30.9141 22.4587 37.8928 23.4742 38.5974C22.8258 38.1259 18.907 34.7276 24.3944 24.6531C25.4543 22.6694 26.8543 20.8732 28.5858 16.831C28.5858 16.831 30.1188 19.2646 29.3181 24.5414C28.1175 32.5195 34.5058 30.2334 34.6022 30.3451C36.7942 33.248 32.8948 38.3134 32.5228 38.643C33.0518 38.2473 43.8647 30.1879 35.7025 18.2532C35.1254 18.9047 34.3728 21.9604 32.809 21.5106ZM49.6218 2.78476C48.1881 0.952823 46.9856 0 46.1646 0C45.8736 0.00743555 45.5915 0.114858 45.3562 0.307851C45.1722 0.514892 44.9872 0.812989 44.9872 1.11217C44.9872 1.63031 45.5268 2.33273 46.5289 3.48609C50.6943 7.99655 52.7919 13.5227 52.7745 20.186C52.7591 27.5571 50.5584 33.4789 46.2726 38.0717C45.3726 38.9768 45.0026 39.689 45.0007 40.2993C45.0007 40.5974 45.1838 40.9085 45.3678 41.2077C45.5853 41.448 45.8705 41.5956 46.1743 41.625C47.1648 41.625 48.5523 40.3101 50.3628 37.7454C53.8884 32.8837 55.4831 27.5148 55.5717 20.199C55.6603 12.8832 53.6147 7.91309 49.6218 2.78476Z" fill="white"/>
</svg>
