<svg width="40" height="42" viewBox="0 0 40 42" fill="none" xmlns="http://www.w3.org/2000/svg">
<path d="M19.9739 1.78873e-06C9.42172 -0.00477501 0.875 9.55837 0.875 21.3618C0.875 30.6957 6.2215 38.6299 13.6673 41.5438C14.6701 41.8256 14.5165 41.0279 14.5165 40.4833V36.7813C8.7262 37.5408 8.49152 33.2513 8.10323 32.5348C7.31811 31.0348 5.46198 30.6527 6.01668 29.9362C7.33517 29.1767 8.67927 30.1273 10.2367 32.7019C11.3632 34.5697 13.5607 34.2544 14.6743 33.9439C14.9176 32.8214 15.4381 31.8182 16.155 31.0396C10.1556 29.8359 7.6552 25.7374 7.6552 20.865C7.6552 18.5005 8.35071 16.3271 9.71614 14.574C8.84568 11.684 9.79721 9.20966 9.92522 8.84185C12.4043 8.59346 14.9816 10.829 15.1821 11.0057C16.5902 10.5806 18.1989 10.3561 19.9995 10.3561C21.8087 10.3561 23.4216 10.5902 24.8425 11.0201C25.3247 10.6093 27.7142 8.68899 30.0183 8.92306C30.1421 9.29087 31.0723 11.7079 30.253 14.5597C31.6355 16.3175 32.3396 18.5101 32.3396 20.8794C32.3396 25.7613 29.822 29.8645 23.8056 31.0492C24.321 31.6165 24.7301 32.2931 25.0093 33.0395C25.2884 33.7858 25.4319 34.5869 25.4313 35.3961V40.77C25.4655 41.1999 25.4313 41.625 26.0714 41.625C33.6282 38.7733 39.0685 30.7817 39.0685 21.3666C39.0685 9.55837 30.5176 1.78873e-06 19.9739 1.78873e-06V1.78873e-06Z" fill="white"/>
</svg>
