<svg width="38" height="42" viewBox="0 0 38 42" fill="none" xmlns="http://www.w3.org/2000/svg">
<path d="M36.395 0H2.355C1.53637 0 0.875 0.744047 0.875 1.665V39.96C0.875 40.881 1.53637 41.625 2.355 41.625H36.395C37.2136 41.625 37.875 40.881 37.875 39.96V1.665C37.875 0.744047 37.2136 0 36.395 0ZM11.8501 35.4697H6.36025V15.6042H11.8501V35.4697ZM9.1075 12.8881C8.47816 12.8881 7.86295 12.6782 7.33968 12.2848C6.8164 11.8915 6.40855 11.3324 6.16772 10.6783C5.92688 10.0242 5.86386 9.30442 5.98664 8.61002C6.10942 7.91561 6.41248 7.27776 6.85749 6.77712C7.3025 6.27649 7.86948 5.93555 8.48672 5.79742C9.10397 5.6593 9.74376 5.73019 10.3252 6.00113C10.9066 6.27208 11.4036 6.7309 11.7532 7.31959C12.1029 7.90828 12.2895 8.60038 12.2895 9.30839C12.2849 11.2856 10.8604 12.8881 9.1075 12.8881ZM32.4036 35.4697H26.9184V25.8075C26.9184 23.5025 26.8814 20.5419 24.0648 20.5419C21.2111 20.5419 20.7718 23.0498 20.7718 25.641V35.4697H15.2911V15.6042H20.5544V18.3202H20.6284C21.3591 16.7593 23.149 15.1099 25.8223 15.1099C31.3815 15.1099 32.4036 19.2255 32.4036 24.5744V35.4697V35.4697Z" fill="white"/>
</svg>
