<svg width="25" height="36" viewBox="0 0 25 36" fill="none" xmlns="http://www.w3.org/2000/svg">
<g clip-path="url(#clip0)">
<path d="M12.4848 35.1647L2.31074 32.3403L0.043457 6.91064H24.9565L22.6869 32.3364L12.4848 35.1647Z" fill="#264DE4"/>
<path d="M20.7438 30.7175L22.6833 8.98999H12.5V33.003L20.7438 30.7175Z" fill="#2965F1"/>
<path d="M5.24121 18.4214L5.5207 21.5402H12.5001V18.4214H5.24121Z" fill="#EBEBEB"/>
<path d="M4.67944 12.1089L4.96294 15.2277H12.5V12.1089H4.67944Z" fill="#EBEBEB"/>
<path d="M12.5 26.5215L12.4863 26.5251L9.01284 25.5873L8.79077 23.0999H5.65991L6.09683 27.9969L12.4856 29.7704L12.5 29.7665V26.5215Z" fill="#EBEBEB"/>
<path d="M5.90674 0H9.68408V1.57969H7.48643V3.15938H9.68428V4.73897H5.90674V0Z" fill="black"/>
<path d="M10.4396 0H14.217V1.37363H12.0192V1.64834H14.217V4.80772H10.4396V3.36524H12.6374V3.09053H10.4395V0H10.4396Z" fill="black"/>
<path d="M14.9727 0H18.7501V1.37363H16.5523V1.64834H18.7501V4.80772H14.9727V3.36524H17.1704V3.09053H14.9728V0H14.9727Z" fill="black"/>
<path d="M19.7391 18.4215L20.3021 12.1089H12.4894V15.2277H16.8841L16.6003 18.4215H12.4894V21.5403H16.3299L15.9678 25.5853L12.4893 26.5241V29.7689L18.8831 27.9969L18.93 27.4699L19.663 19.259L19.7391 18.4215Z" fill="white"/>
</g>
<defs>
<clipPath id="clip0">
<rect width="25" height="35.2539" fill="white"/>
</clipPath>
</defs>
</svg>
