<svg width="25" height="25" viewBox="0 0 25 25" fill="none" xmlns="http://www.w3.org/2000/svg">
<path d="M12.5 14.4329C11.4213 14.4329 10.5469 13.5584 10.5469 12.4797C10.5469 11.4011 11.4213 10.5266 12.5 10.5266C13.5787 10.5266 14.4531 11.4011 14.4531 12.4797C14.4531 13.5584 13.5787 14.4329 12.5 14.4329Z" fill="#007ACC"/>
<path d="M12.5 16.9577C14.8476 17.0145 17.1892 16.6981 19.4375 16.0202C20.4761 15.691 21.4447 15.1724 22.2945 14.4906C22.6188 14.2576 22.8889 13.9573 23.0861 13.6102C23.2834 13.2631 23.4033 12.8774 23.4375 12.4796C23.4375 11.1882 22.0188 9.92259 19.6422 9.09447C17.3338 8.36068 14.9219 8.00504 12.5 8.04134C10.1104 8.00795 7.73083 8.35716 5.45156 9.07572C4.45134 9.39459 3.51552 9.88815 2.6875 10.5335C2.36877 10.7556 2.10277 11.045 1.90836 11.3813C1.71395 11.7177 1.59587 12.0926 1.5625 12.4796C1.5625 13.8218 3.14844 15.182 5.70312 16.0273C7.90787 16.683 10.2001 16.9968 12.5 16.9577ZM12.5 8.97572C14.8171 8.94474 17.1244 9.28283 19.3352 9.97728C21.5227 10.7406 22.5031 11.7843 22.5031 12.4773C22.5031 13.2023 21.4492 14.3421 19.1352 15.1335C16.9843 15.7787 14.7448 16.0791 12.5 16.0234C10.2997 16.0627 8.10631 15.765 5.99609 15.1406C3.59375 14.3445 2.5 13.2031 2.5 12.4796C2.53942 12.2314 2.62989 11.994 2.76571 11.7825C2.90152 11.5709 3.07972 11.3899 3.28906 11.2507C4.02988 10.6782 4.86586 10.2407 5.75859 9.95853C7.93904 9.27396 10.2149 8.94218 12.5 8.97572Z" fill="#007ACC"/>
<path d="M16.9373 22.2211C17.3018 22.2295 17.6619 22.1411 17.9811 21.9649C19.0998 21.3196 19.4873 19.4586 19.0178 16.986C18.5001 14.6196 17.6031 12.3526 16.3615 10.2727C15.1969 8.18604 13.7059 6.29918 11.9451 4.68362C11.1692 3.97636 10.2741 3.41217 9.30138 3.01721C8.94954 2.85232 8.56573 2.76685 8.17716 2.76685C7.78859 2.76685 7.40479 2.85232 7.05294 3.01721C5.88966 3.68752 5.5045 5.74065 6.04747 8.37581C6.58115 10.6137 7.45485 12.7566 8.6381 14.7297C9.76174 16.7917 11.2058 18.6622 12.9162 20.2711C13.7203 21.0061 14.6535 21.5859 15.6686 21.9813C16.075 22.1321 16.5039 22.2132 16.9373 22.2211ZM15.5522 10.7367C16.7365 12.7284 17.5962 14.8959 18.099 17.1578C18.5311 19.4352 18.1162 20.8047 17.5131 21.1532C16.8881 21.5149 15.3709 21.1719 13.5287 19.5625C11.8959 18.0211 10.5176 16.2307 9.44513 14.2578C8.31159 12.3715 7.47349 10.3228 6.95997 8.18284C6.44904 5.70237 6.89044 4.18362 7.517 3.82268C7.75184 3.7327 8.00279 3.69242 8.25398 3.70439C8.50518 3.71636 8.75116 3.78031 8.97638 3.89221C9.84225 4.24951 10.6383 4.75677 11.3279 5.39065C13.0102 6.93814 14.4344 8.74451 15.5467 10.7414L15.5522 10.7367Z" fill="#007ACC"/>
<path d="M8.06484 22.2313C9.12343 22.2313 10.468 21.5907 11.868 20.3868C13.6596 18.7565 15.1758 16.8472 16.3578 14.7329C17.5838 12.6816 18.4737 10.4473 18.9937 8.11489C19.2193 7.08871 19.2611 6.03066 19.1172 4.98989C19.0839 4.6038 18.9664 4.22971 18.7728 3.894C18.5792 3.55829 18.3143 3.26913 17.9969 3.04692C16.8352 2.37426 14.8641 3.06567 12.8523 4.85161C11.18 6.43144 9.75985 8.25841 8.6414 10.2688C7.41617 12.2722 6.51694 14.4575 5.97734 16.743C5.74209 17.8068 5.7058 18.905 5.87031 19.9821C5.90945 20.3793 6.03402 20.7633 6.23548 21.1078C6.43695 21.4524 6.71054 21.7493 7.03749 21.9782C7.35143 22.1522 7.706 22.2395 8.06484 22.2313ZM15.5492 14.2625C14.4153 16.2832 12.967 18.1105 11.2586 19.6758C9.50156 21.1875 8.10781 21.5125 7.50859 21.1602C6.88359 20.7969 6.42265 19.3141 6.89765 16.9149C7.41806 14.7328 8.28055 12.6468 9.45312 10.7344C10.5204 8.8103 11.876 7.06087 13.4727 5.54692C15.3664 3.86567 16.9023 3.48989 17.5281 3.85239C17.7232 4.01089 17.8832 4.20811 17.9982 4.4316C18.1132 4.65508 18.1805 4.89998 18.1961 5.15083C18.3203 6.07902 18.2798 7.02185 18.0766 7.93598C17.5763 10.1666 16.7229 12.3029 15.5484 14.2641L15.5492 14.2625Z" fill="#007ACC"/>
</svg>
