<svg width="25" height="23" viewBox="0 0 25 23" fill="none" xmlns="http://www.w3.org/2000/svg">
<path d="M4.21971 4.17584C4.66936 3.7136 4.91415 3.43278 4.91415 3.22531C4.91415 3.10552 4.83082 2.98617 4.74792 2.90327C4.64195 2.82599 4.51489 2.78298 4.38377 2.78C4.01571 2.78 3.47578 3.16151 2.82821 3.89502C1.02787 5.94623 0.109031 7.93452 0.146357 10.8655C0.183683 13.7965 0.904604 15.9436 2.49271 17.8911C3.30825 18.9176 3.93325 19.4445 4.37943 19.4445C4.51627 19.4331 4.64479 19.3741 4.74271 19.2778C4.82561 19.158 4.90808 19.0335 4.90808 18.9141C4.90808 18.6698 4.74054 18.3846 4.33516 18.0222C2.40591 16.1849 1.41328 13.8121 1.40634 10.8607C1.39983 8.1945 2.34384 5.98226 4.21971 4.17584ZM10.3938 18.2323C10.4189 18.2483 10.4332 18.2561 10.4332 18.2561L10.3938 18.2323ZM14.4645 18.2561L14.4719 18.2505C14.4636 18.2561 14.4606 18.2583 14.4645 18.2561ZM14.6003 11.3907C13.8955 11.2106 16.7883 7.79302 11.6468 3.70101C11.6468 3.70101 12.3213 5.84424 8.91979 10.6268C5.69627 15.1559 9.93802 17.9501 10.3955 18.2323C10.1034 18.0435 8.3382 16.6828 10.81 12.6489C11.2874 11.8547 11.9181 11.1355 12.698 9.51698C12.698 9.51698 13.3885 10.4914 13.0279 12.6042C12.4871 15.7987 15.3647 14.8833 15.4081 14.928C16.3955 16.0903 14.639 18.1185 14.4714 18.2505C14.7097 18.0921 19.5804 14.8651 15.9037 10.0864C15.6438 10.3473 15.3048 11.5708 14.6003 11.3907ZM22.1737 3.89285C21.5279 3.15934 20.9862 2.77783 20.6164 2.77783C20.4853 2.78081 20.3582 2.82382 20.2523 2.9011C20.1694 2.984 20.086 3.10335 20.086 3.22314C20.086 3.43061 20.3291 3.71186 20.7805 4.17367C22.6568 5.97966 23.6017 8.19233 23.5938 10.8603C23.5869 13.8117 22.5956 16.1828 20.665 18.0218C20.2596 18.3842 20.093 18.6693 20.0921 18.9137C20.0921 19.033 20.1746 19.1576 20.2575 19.2774C20.3555 19.3736 20.4839 19.4327 20.6207 19.4445C21.0669 19.4445 21.6919 18.918 22.5075 17.8911C24.0956 15.9445 24.8139 13.7948 24.8538 10.8655C24.8938 7.93625 23.9723 5.94623 22.1737 3.89285Z" fill="black"/>
</svg>
