<svg width="25" height="25" viewBox="0 0 25 25" fill="none" xmlns="http://www.w3.org/2000/svg">
<path d="M16.6667 16.6666C18.9679 16.6666 20.8333 14.8011 20.8333 12.4999C20.8333 10.1987 18.9679 8.33325 16.6667 8.33325C14.3655 8.33325 12.5 10.1987 12.5 12.4999C12.5 14.8011 14.3655 16.6666 16.6667 16.6666Z" fill="#19BCFE"/>
<path fill-rule="evenodd" clip-rule="evenodd" d="M8.33341 25.0001C9.43848 25.0001 10.4983 24.5611 11.2797 23.7797C12.0611 22.9983 12.5001 21.9385 12.5001 20.8334V16.6667H8.33341C7.22835 16.6667 6.16854 17.1057 5.38714 17.8871C4.60573 18.6685 4.16675 19.7283 4.16675 20.8334C4.16675 21.9385 4.60573 22.9983 5.38714 23.7797C6.16854 24.5611 7.22835 25.0001 8.33341 25.0001Z" fill="#09CF83"/>
<path fill-rule="evenodd" clip-rule="evenodd" d="M8.33341 16.6666H12.5001V8.33325H8.33341C7.22835 8.33325 6.16854 8.77224 5.38714 9.55364C4.60573 10.335 4.16675 11.3948 4.16675 12.4999C4.16675 13.605 4.60573 14.6648 5.38714 15.4462C6.16854 16.2276 7.22835 16.6666 8.33341 16.6666Z" fill="#A259FF"/>
<path fill-rule="evenodd" clip-rule="evenodd" d="M8.33341 8.33333H12.5001V0H8.33341C7.22835 0 6.16854 0.438987 5.38714 1.22039C4.60573 2.00179 4.16675 3.0616 4.16675 4.16667C4.16675 5.27174 4.60573 6.33154 5.38714 7.11295C6.16854 7.89435 7.22835 8.33333 8.33341 8.33333Z" fill="#F24E1E"/>
<path fill-rule="evenodd" clip-rule="evenodd" d="M16.6667 8.33333H12.5V0H16.6667C17.7717 0 18.8315 0.438987 19.6129 1.22039C20.3943 2.00179 20.8333 3.0616 20.8333 4.16667C20.8333 5.27174 20.3943 6.33154 19.6129 7.11295C18.8315 7.89435 17.7717 8.33333 16.6667 8.33333Z" fill="#FF7262"/>
</svg>
