<svg width="25" height="25" viewBox="0 0 25 25" fill="none" xmlns="http://www.w3.org/2000/svg">
<path d="M0 0H25V25H0V0Z" fill="#F7DF1E"/>
<path d="M6.57334 20.8919L8.48643 19.7341C8.85557 20.3885 9.19131 20.9422 9.99668 20.9422C10.7687 20.9422 11.2555 20.6402 11.2555 19.4656V11.4775H13.6048V19.4988C13.6048 21.9321 12.1784 23.0397 10.0974 23.0397C8.21797 23.0397 7.12705 22.0664 6.57324 20.8917" fill="black"/>
<path d="M14.881 20.64L16.7938 19.5325C17.2975 20.3548 17.952 20.9589 19.1098 20.9589C20.0833 20.9589 20.704 20.4722 20.704 19.8009C20.704 18.9955 20.0663 18.7101 18.9923 18.2404L18.4051 17.9884C16.7101 17.267 15.5857 16.3608 15.5857 14.4477C15.5857 12.6856 16.9282 11.343 19.026 11.343C20.5195 11.343 21.5936 11.8633 22.3654 13.2226L20.5361 14.3974C20.1333 13.6758 19.6972 13.3906 19.0259 13.3906C18.3378 13.3906 17.9015 13.8269 17.9015 14.3974C17.9015 15.1022 18.3378 15.3876 19.3446 15.824L19.9319 16.0756C21.929 16.9316 23.0533 17.8042 23.0533 19.7674C23.0533 21.8821 21.392 23.0399 19.1601 23.0399C16.9785 23.0399 15.5688 21.9995 14.8809 20.6401" fill="black"/>
</svg>
