<svg width="25" height="36" viewBox="0 0 25 36" fill="none" xmlns="http://www.w3.org/2000/svg">
<g clip-path="url(#clip0)">
<path d="M24.9525 6.9126L22.6836 32.3451L12.4848 35.1741L2.31415 32.349L0.0476074 6.9126H24.9525Z" fill="#E44D26"/>
<path d="M12.5 33.0115L20.7411 30.7254L22.6799 8.99219H12.5V33.0115Z" fill="#F16529"/>
<path d="M8.08926 15.2317H12.4999V12.1121H4.68188L4.75647 12.949L5.52282 21.546H12.4999V18.4263H8.37422L8.08926 15.2317Z" fill="#EBEBEB"/>
<path d="M8.79218 23.106H5.66235L6.09912 28.0043L12.4858 29.7782L12.5001 29.7743V26.5285L12.4865 26.5322L9.01418 25.594L8.79218 23.106Z" fill="#EBEBEB"/>
<path d="M2.36475 0H3.94918V1.56633H5.39861V0H6.98315V4.74324H5.39871V3.15493H3.94928V4.74324H2.36484V0H2.36475Z" fill="black"/>
<path d="M9.06653 1.57297H7.67188V0H12.0468V1.57297H10.6513V4.74324H9.06682V1.57297H9.06673H9.06653Z" fill="black"/>
<path d="M12.741 0H14.3931L15.4093 1.66665L16.4246 0H18.0774V4.74324H16.4994V2.39223L15.4093 4.07871H15.382L14.2912 2.39223V4.74324H12.741V0Z" fill="black"/>
<path d="M18.8661 0H20.451V3.17544H22.6792V4.74324H18.866V0H18.8661Z" fill="black"/>
<path d="M12.4891 21.5459H16.3284L15.9664 25.5919L12.489 26.531V29.7766L18.8808 28.0042L18.9276 27.4771L19.6604 19.264L19.7364 18.4263H12.4891V21.5459Z" fill="white"/>
<path d="M12.4893 15.2241V15.2317H20.0203L20.0828 14.5306L20.2249 12.949L20.2994 12.1121H12.4893V15.2242V15.2241Z" fill="white"/>
</g>
<defs>
<clipPath id="clip0">
<rect width="25" height="35.2632" fill="white"/>
</clipPath>
</defs>
</svg>
