<svg width="58" height="15" viewBox="0 0 58 15" fill="none" xmlns="http://www.w3.org/2000/svg">
<path d="M5.41797 11L6.23242 6.94531C6.28711 6.64844 6.3125 6.42578 6.30859 6.27734C6.30859 6.12891 6.25586 6.05469 6.15039 6.05469C6.06445 6.05469 5.95898 6.11328 5.83398 6.23047C5.71289 6.34766 5.5918 6.49805 5.4707 6.68164C5.34961 6.86523 5.23633 7.07227 5.13086 7.30273C5.0293 7.5293 4.95703 7.75391 4.91406 7.97656L4.31055 11H3.08594L3.90625 6.94531C3.96094 6.64844 3.98633 6.42578 3.98242 6.27734C3.98242 6.12891 3.92773 6.05469 3.81836 6.05469C3.74414 6.05469 3.64648 6.11328 3.52539 6.23047C3.4043 6.34766 3.28125 6.49805 3.15625 6.68164C3.03125 6.86523 2.91602 7.07227 2.81055 7.30273C2.70508 7.5293 2.62891 7.75391 2.58203 7.97656L1.98438 11H0.748047L1.38672 7.81836C1.41016 7.69727 1.43164 7.56445 1.45117 7.41992C1.47461 7.27539 1.49805 7.09961 1.52148 6.89258C1.54883 6.68164 1.57812 6.42773 1.60938 6.13086C1.64062 5.83398 1.67773 5.47266 1.7207 5.04688H2.77539L2.74023 6.00781L2.85742 5.83789C3.0957 5.52148 3.32031 5.29102 3.53125 5.14648C3.74219 5.00195 3.9707 4.92969 4.2168 4.92969C4.50586 4.92969 4.7207 4.99805 4.86133 5.13477C5.00586 5.27148 5.07812 5.46289 5.07812 5.70898C5.07812 5.75195 5.07422 5.79883 5.06641 5.84961C5.0625 5.90039 5.05469 5.95312 5.04297 6.00781C5.16797 5.83203 5.28711 5.67773 5.40039 5.54492C5.51758 5.4082 5.63477 5.29492 5.75195 5.20508C5.86914 5.11133 5.98828 5.04297 6.10938 5C6.23438 4.95312 6.36719 4.92969 6.50781 4.92969C6.9375 4.92969 7.24023 5.08789 7.41602 5.4043C7.5918 5.7168 7.61328 6.19727 7.48047 6.8457L6.6543 11H5.41797ZM11.4355 9.00781C11.3652 9.37891 11.3672 9.64062 11.4414 9.79297C11.5156 9.94141 11.6621 10.0156 11.8809 10.0156C12.0645 10.0156 12.2676 9.97656 12.4902 9.89844C12.7129 9.81641 12.9668 9.70703 13.252 9.57031V10.666C12.998 10.8027 12.7246 10.9141 12.4316 11C12.1426 11.0898 11.8477 11.1348 11.5469 11.1348C10.8789 11.1348 10.4141 10.9629 10.1523 10.6191C9.89062 10.2715 9.83594 9.71875 9.98828 8.96094L10.3691 7.03906C10.4434 6.66797 10.4414 6.4082 10.3633 6.25977C10.2852 6.10742 10.1387 6.03125 9.92383 6.03125C9.74414 6.03125 9.54102 6.07227 9.31445 6.1543C9.0918 6.23242 8.83984 6.33984 8.55859 6.47656V5.38086C8.8125 5.24023 9.08398 5.12695 9.37305 5.04102C9.66211 4.95508 9.95898 4.91211 10.2637 4.91211C10.9277 4.91211 11.3906 5.08594 11.6523 5.43359C11.9141 5.78125 11.9707 6.33203 11.8223 7.08594L11.4355 9.00781ZM12.6133 3.36523C12.6133 3.50586 12.5859 3.63672 12.5312 3.75781C12.4766 3.87891 12.4023 3.98438 12.3086 4.07422C12.2188 4.16016 12.1133 4.22852 11.9922 4.2793C11.875 4.32617 11.75 4.34961 11.6172 4.34961C11.4805 4.34961 11.3555 4.32617 11.2422 4.2793C11.1289 4.22852 11.0312 4.16406 10.9492 4.08594C10.8672 4.00391 10.8027 3.91016 10.7559 3.80469C10.7129 3.69531 10.6914 3.58203 10.6914 3.46484C10.6914 3.32422 10.7188 3.19531 10.7734 3.07812C10.8281 2.95703 10.9023 2.85352 10.9961 2.76758C11.0898 2.67773 11.1973 2.60742 11.3184 2.55664C11.4395 2.50586 11.5664 2.48047 11.6992 2.48047C11.8398 2.48047 11.9648 2.50586 12.0742 2.55664C12.1875 2.60352 12.2832 2.66797 12.3613 2.75C12.4434 2.83203 12.5059 2.92578 12.5488 3.03125C12.5918 3.13672 12.6133 3.24805 12.6133 3.36523ZM19.3457 11.0469C19.2676 11.4414 19.1543 11.7871 19.0059 12.084C18.8574 12.3848 18.6641 12.6367 18.4258 12.8398C18.1875 13.0469 17.9004 13.2012 17.5645 13.3027C17.2324 13.4082 16.8418 13.4609 16.3926 13.4609C16.0605 13.4609 15.7129 13.4238 15.3496 13.3496C14.9863 13.2793 14.6582 13.168 14.3652 13.0156L14.9219 11.9727C15.168 12.0977 15.4082 12.1895 15.6426 12.248C15.877 12.3105 16.1348 12.3418 16.416 12.3418C16.8496 12.3418 17.1855 12.2383 17.4238 12.0312C17.6621 11.8281 17.8301 11.5234 17.9277 11.1172C17.9707 10.9414 18.0234 10.7656 18.0859 10.5898C18.1523 10.4141 18.2188 10.2344 18.2852 10.0508C18.1797 10.2188 18.0547 10.3711 17.9102 10.5078C17.7656 10.6406 17.6074 10.7539 17.4355 10.8477C17.2676 10.9414 17.0879 11.0117 16.8965 11.0586C16.7051 11.1094 16.5117 11.1348 16.3164 11.1348C15.7383 11.1348 15.2988 10.9551 14.998 10.5957C14.7012 10.2363 14.5527 9.72656 14.5527 9.06641C14.5527 8.46875 14.6328 7.91797 14.793 7.41406C14.9531 6.90625 15.1855 6.4707 15.4902 6.10742C15.7949 5.74023 16.168 5.45508 16.6094 5.25195C17.0547 5.04492 17.5586 4.94141 18.1211 4.94141C18.4219 4.94141 18.6895 4.96289 18.9238 5.00586C19.1621 5.04492 19.3691 5.0918 19.5449 5.14648L20.5645 4.92969L19.3457 11.0469ZM18.8887 6.18945C18.7637 6.14648 18.6348 6.11328 18.502 6.08984C18.373 6.06641 18.2344 6.05469 18.0859 6.05469C17.8086 6.05469 17.5645 6.10547 17.3535 6.20703C17.1465 6.30469 16.9668 6.43555 16.8145 6.59961C16.6621 6.75977 16.5352 6.94336 16.4336 7.15039C16.3359 7.35742 16.2578 7.56836 16.1992 7.7832C16.1406 7.99805 16.0996 8.21094 16.0762 8.42188C16.0527 8.62891 16.041 8.8125 16.041 8.97266C16.041 9.28516 16.0938 9.52344 16.1992 9.6875C16.3086 9.85156 16.4727 9.93359 16.6914 9.93359C16.8711 9.93359 17.0625 9.86133 17.2656 9.7168C17.4688 9.57227 17.6621 9.38672 17.8457 9.16016C18.0293 8.93359 18.1895 8.68164 18.3262 8.4043C18.4668 8.12695 18.5625 7.85547 18.6133 7.58984L18.8887 6.18945ZM23.623 5.04688L22.8438 8.92578C22.7852 9.25 22.7949 9.5 22.873 9.67578C22.9512 9.84766 23.0898 9.93359 23.2891 9.93359C23.4688 9.93359 23.6602 9.86133 23.8633 9.7168C24.0664 9.57227 24.2598 9.38672 24.4434 9.16016C24.627 8.93359 24.7871 8.68164 24.9238 8.4043C25.0645 8.12695 25.1602 7.85547 25.2109 7.58984L25.7148 5.04688H27.1387L26.5059 8.22852C26.4824 8.35352 26.459 8.48828 26.4355 8.63281C26.4121 8.77344 26.3867 8.94922 26.3594 9.16016C26.3359 9.36719 26.3086 9.61914 26.2773 9.91602C26.2461 10.2129 26.2109 10.5742 26.1719 11H25.0059L25.0527 9.92188C24.9629 10.0586 24.8496 10.1992 24.7129 10.3438C24.5762 10.4844 24.416 10.6133 24.2324 10.7305C24.0527 10.8477 23.8516 10.9434 23.6289 11.0176C23.4102 11.0957 23.1719 11.1348 22.9141 11.1348C22.5977 11.1348 22.3281 11.082 22.1055 10.9766C21.8867 10.8711 21.7129 10.7227 21.584 10.5312C21.459 10.3359 21.3809 10.1016 21.3496 9.82812C21.3223 9.55078 21.3438 9.24219 21.4141 8.90234L22.1992 5.04688H23.623ZM29.3359 8.51562C29.3281 8.5625 29.3223 8.61719 29.3184 8.67969C29.3145 8.73828 29.3125 8.80469 29.3125 8.87891C29.3125 9.23438 29.4238 9.50977 29.6465 9.70508C29.873 9.89648 30.2051 9.99219 30.6426 9.99219C30.9355 9.99219 31.25 9.9707 31.5859 9.92773C31.9219 9.88086 32.2441 9.81445 32.5527 9.72852V10.8418C32.2246 10.9277 31.8711 10.998 31.4922 11.0527C31.1172 11.1074 30.7422 11.1348 30.3672 11.1348C29.9844 11.1348 29.6406 11.0879 29.3359 10.9941C29.0312 10.9004 28.7734 10.7617 28.5625 10.5781C28.3516 10.3945 28.1895 10.1641 28.0762 9.88672C27.9629 9.60938 27.9062 9.28516 27.9062 8.91406C27.9062 8.375 27.9883 7.86328 28.1523 7.37891C28.3203 6.89453 28.5547 6.4707 28.8555 6.10742C29.1602 5.74023 29.5254 5.45117 29.9512 5.24023C30.377 5.02539 30.8516 4.91797 31.375 4.91797C31.7148 4.91797 32.0156 4.95703 32.2773 5.03516C32.543 5.11328 32.7656 5.22266 32.9453 5.36328C33.1289 5.50391 33.2676 5.67383 33.3613 5.87305C33.459 6.06836 33.5078 6.28516 33.5078 6.52344C33.5078 6.82422 33.4473 7.09766 33.3262 7.34375C33.2051 7.58594 33.0098 7.79492 32.7402 7.9707C32.4707 8.14258 32.1191 8.27734 31.6855 8.375C31.2559 8.46875 30.7324 8.51562 30.1152 8.51562H29.3359ZM30.1855 7.49609C30.5957 7.49609 30.9258 7.47266 31.1758 7.42578C31.4258 7.37891 31.6191 7.31836 31.7559 7.24414C31.8965 7.16602 31.9902 7.07617 32.0371 6.97461C32.084 6.87305 32.1074 6.76758 32.1074 6.6582C32.1074 6.45117 32.0273 6.28711 31.8672 6.16602C31.707 6.04492 31.4941 5.98438 31.2285 5.98438C31.0137 5.98438 30.8164 6.02539 30.6367 6.10742C30.457 6.18555 30.2969 6.29297 30.1562 6.42969C30.0195 6.56641 29.9004 6.72656 29.7988 6.91016C29.7012 7.09375 29.623 7.28906 29.5645 7.49609H30.1855ZM36.7246 9.17773C36.6699 9.45898 36.6914 9.66992 36.7891 9.81055C36.8867 9.94727 37.0645 10.0156 37.3223 10.0156C37.6074 10.0156 37.9121 9.97266 38.2363 9.88672C38.5605 9.80078 38.9375 9.67578 39.3672 9.51172V10.6309C38.9727 10.7949 38.5781 10.9199 38.1836 11.0059C37.793 11.0918 37.3906 11.1348 36.9766 11.1348C36.2656 11.1348 35.7734 10.959 35.5 10.6074C35.2305 10.252 35.1699 9.69922 35.3184 8.94922L36.5664 2.7207H38.0078L36.7246 9.17773ZM40.0146 12.6187C40.2539 12.6479 40.5054 12.6626 40.769 12.6626C40.979 12.6626 41.1792 12.6333 41.3696 12.5747C41.5601 12.521 41.7334 12.4331 41.8896 12.311C42.0508 12.1938 42.1875 12.04 42.2998 11.8496C42.4121 11.6592 42.4951 11.4321 42.5488 11.1685L43.5742 6.01953H41.4136L41.6992 4.62793H43.8525L44.0649 3.55859C44.2749 2.51855 44.6851 1.75195 45.2954 1.25879C45.9106 0.760742 46.7505 0.511719 47.8149 0.511719C48.1226 0.511719 48.4326 0.533691 48.7451 0.577637C49.0625 0.616699 49.3433 0.665527 49.5874 0.724121L49.3018 2.12305C49.0527 2.05957 48.7891 2.01074 48.5107 1.97656C48.2373 1.94238 47.9614 1.92529 47.6831 1.92529C47.1411 1.92529 46.7285 2.06934 46.4453 2.35742C46.167 2.64063 45.9741 3.04102 45.8667 3.55859L45.6543 4.62793H48.584L48.2983 6.01953H45.3687L44.3652 11.0879C44.2578 11.6445 44.0918 12.1133 43.8672 12.4941C43.6475 12.875 43.3789 13.1826 43.0615 13.417C42.7441 13.6514 42.3828 13.8198 41.9775 13.9224C41.5723 14.0249 41.1328 14.0762 40.6592 14.0762C40.4541 14.0762 40.2783 14.0713 40.1318 14.0615C39.9805 14.0566 39.8413 14.0469 39.7144 14.0322L40.0146 12.6187ZM54.3555 11L55.3735 5.93164C55.4419 5.56055 55.4736 5.28223 55.4688 5.09668C55.4688 4.91113 55.4028 4.81836 55.271 4.81836C55.1636 4.81836 55.0317 4.8916 54.8755 5.03809C54.7241 5.18457 54.5728 5.37256 54.4214 5.60205C54.27 5.83154 54.1284 6.09033 53.9966 6.37842C53.8696 6.66162 53.7793 6.94238 53.7256 7.2207L52.9712 11H51.4404L52.4658 5.93164C52.5342 5.56055 52.5659 5.28223 52.561 5.09668C52.561 4.91113 52.4927 4.81836 52.356 4.81836C52.2632 4.81836 52.1411 4.8916 51.9897 5.03809C51.8384 5.18457 51.6846 5.37256 51.5283 5.60205C51.3721 5.83154 51.228 6.09033 51.0962 6.37842C50.9644 6.66162 50.8691 6.94238 50.8105 7.2207L50.0635 11H48.5181L49.3164 7.02295C49.3457 6.87158 49.3726 6.70557 49.397 6.5249C49.4263 6.34424 49.4556 6.12451 49.4849 5.86572C49.519 5.60205 49.5557 5.28467 49.5947 4.91357C49.6338 4.54248 49.6802 4.09082 49.7339 3.55859H51.0522L51.0083 4.75977L51.1548 4.54736C51.4526 4.15186 51.7334 3.86377 51.9971 3.68311C52.2607 3.50244 52.5464 3.41211 52.854 3.41211C53.2153 3.41211 53.4839 3.49756 53.6597 3.66846C53.8403 3.83936 53.9307 4.07861 53.9307 4.38623C53.9307 4.43994 53.9258 4.49854 53.916 4.56201C53.9111 4.62549 53.9014 4.69141 53.8867 4.75977C54.043 4.54004 54.1919 4.34717 54.3335 4.18115C54.48 4.01025 54.6265 3.86865 54.7729 3.75635C54.9194 3.63916 55.0684 3.55371 55.2197 3.5C55.376 3.44141 55.542 3.41211 55.7178 3.41211C56.2549 3.41211 56.6333 3.60986 56.853 4.00537C57.0728 4.396 57.0996 4.99658 56.9336 5.80713L55.9009 11H54.3555Z" fill="black"/>
</svg>
