<svg width="66" height="66" viewBox="0 0 66 66" fill="none" xmlns="http://www.w3.org/2000/svg">
<path d="M66 33C66 51.2254 51.2254 66 33 66C14.7746 66 0 51.2254 0 33C0 14.7746 14.7746 0 33 0C51.2254 0 66 14.7746 66 33Z" fill="#233B4E"/>
<path d="M59.7567 32.9999C59.7567 47.7773 47.7773 59.7567 32.9999 59.7567C18.2226 59.7567 6.24316 47.7773 6.24316 32.9999C6.24316 18.2226 18.2226 6.24316 32.9999 6.24316C47.7773 6.24316 59.7567 18.2226 59.7567 32.9999Z" fill="#34556F"/>
<path d="M34.0343 35.5343H26.5313V48.1623H22.2971V16.946H32.8716C36.4695 16.946 39.2338 17.7465 41.1644 19.3473C43.1096 20.9481 44.0822 23.2779 44.0822 26.3366C44.0822 28.2805 43.5411 29.9742 42.4588 31.4178C41.3911 32.8615 39.8993 33.9406 37.9833 34.6552L45.4863 47.905V48.1623H40.9669L34.0343 35.5343ZM26.5313 32.1682H33.0032C35.0947 32.1682 36.7547 31.6394 37.9833 30.5817C39.2265 29.524 39.8481 28.109 39.8481 26.3366C39.8481 24.4071 39.2557 22.9277 38.071 21.8986C36.901 20.8695 35.2044 20.3478 32.9813 20.3335H26.5313V32.1682Z" fill="black"/>
</svg>
