<svg width="38" height="42" viewBox="0 0 38 42" fill="none" xmlns="http://www.w3.org/2000/svg">
<path fill-rule="evenodd" clip-rule="evenodd" d="M32.1464 6.04988C30.4479 4.12645 28.427 2.60132 26.2007 1.56284C23.9745 0.524357 21.5872 -0.00682467 19.1772 6.61944e-05C9.07151 6.61944e-05 0.844764 9.25286 0.840679 20.6264C0.840679 24.2614 1.68419 27.809 3.28746 30.9385L0.6875 41.625L10.4072 38.7552C13.0958 40.4017 16.1079 41.2651 19.1691 41.2666H19.1772C29.2809 41.2666 37.5077 32.0138 37.5118 20.6402C37.5187 17.93 37.0481 15.2452 36.1272 12.7409C35.2063 10.2366 33.8533 7.96241 32.1464 6.04988V6.04988ZM19.1772 37.7856H19.1711C16.4415 37.7859 13.7621 36.9597 11.4141 35.3937L10.8586 35.0214L5.09089 36.724L6.62881 30.3985L6.2673 29.7505C4.74121 27.0173 3.93333 23.8542 3.93694 20.6264C3.94102 11.1737 10.7769 3.48336 19.1834 3.48336C21.1854 3.47836 23.1685 3.92011 25.0178 4.78305C26.867 5.646 28.5458 6.91299 29.957 8.51071C31.3757 10.1008 32.5001 11.9915 33.2654 14.0734C34.0307 16.1554 34.4216 18.3873 34.4155 20.6402C34.4114 30.0929 27.5755 37.7856 19.1772 37.7856ZM27.5367 24.9438C27.0772 24.6841 24.8265 23.4388 24.4058 23.2665C23.9871 23.0941 23.6828 23.0091 23.3764 23.5238C23.07 24.0385 22.1918 25.1988 21.9243 25.5435C21.6567 25.8881 21.3891 25.9295 20.9317 25.6721C20.4742 25.4148 18.9975 24.8703 17.2472 23.1148C15.8849 21.7477 14.9658 20.0612 14.6983 19.5442C14.4307 19.0272 14.6697 18.7492 14.9005 18.4919C15.1068 18.2621 15.358 17.8899 15.5867 17.5889C15.8155 17.2879 15.891 17.0742 16.0442 16.7295C16.1974 16.3849 16.1218 16.0839 16.0054 15.8265C15.891 15.5669 14.974 13.0303 14.5921 11.9986C14.2224 10.9991 13.8446 11.1324 13.5627 11.1186C13.2708 11.1052 12.9787 11.099 12.6865 11.1002C12.4542 11.1069 12.2256 11.1674 12.0151 11.2782C11.8046 11.3889 11.6167 11.5473 11.4631 11.7436C11.0424 12.2605 9.85987 13.5059 9.85987 16.0425C9.85987 18.5792 11.5019 21.0308 11.7307 21.3755C11.9594 21.7201 14.9618 26.9244 19.5571 29.1577C20.6518 29.6885 21.5056 30.0056 22.1693 30.2445C23.2661 30.6375 24.2648 30.58 25.0552 30.449C25.9355 30.302 27.7655 29.2037 28.1474 27.9997C28.5293 26.7957 28.5293 25.7641 28.415 25.5481C28.3006 25.3321 27.9922 25.2011 27.5367 24.9438" fill="white"/>
</svg>
